PathFileType	4	(X/Y/Z)	results/motion.trc
DataRate	CameraRate	NumFrames	NumMarkers	Units	OrigDataRate	OrigDataStartFrame	OrigNumFrames
27	27	14	20	mm	27	231	614
Frame#	Time	NUI_SKELETON_POSITION_HIP_CENTER	NUI_SKELETON_POSITION_HIP_RIGHT	NUI_SKELETON_POSITION_HIP_LEFT	NUI_SKELETON_POSITION_KNEE_RIGHT	NUI_SKELETON_POSITION_KNEE_LEFT	NUI_SKELETON_POSITION_ANKLE_RIGHT	NUI_SKELETON_POSITION_ANKLE_LEFT	NUI_SKELETON_POSITION_FOOT_RIGHT	NUI_SKELETON_POSITION_FOOT_LEFT	NUI_SKELETON_POSITION_SPINE	NUI_SKELETON_POSITION_SHOULDER_RIGHT	NUI_SKELETON_POSITION_SHOULDER_LEFT	NUI_SKELETON_POSITION_ELBOW_RIGHT	NUI_SKELETON_POSITION_ELBOW_LEFT	NUI_SKELETON_POSITION_WRIST_RIGHT	NUI_SKELETON_POSITION_WRIST_LEFT	NUI_SKELETON_POSITION_HAND_RIGHT	NUI_SKELETON_POSITION_HAND_LEFT	NUI_SKELETON_POSITION_SHOULDER_CENTER	NUI_SKELETON_POSITION_HEAD
X1	Y1	Z1	X2	Y2	Z2	X3	Y3	Z3	X4	Y4	Z4	X5	Y5	Z5	X6	Y6	Z6	X7	Y7	Z7	X8	Y8	Z8	X9	Y9	Z9	X10	Y10	Z10	X11	Y11	Z11	X12	Y12	Z12	X13	Y13	Z13	X14	Y14	Z14	X15	Y15	Z15	X16	Y16	Z16	X17	Y17	Z17	X18	Y18	Z18	X19	Y19	Z19	X20	Y20	Z20	
231	8.238000	-85.714124	-64.382955	2891.422033	2.615591	-153.018683	2887.921333	-170.805097	-153.918371	2881.179094	46.722129	-579.248846	2938.717365	-210.020930	-572.174311	2950.035572	73.881030	-924.627841	2972.985268	-236.385822	-896.838903	2990.629911	77.603742	-999.558270	2930.797338	-240.187556	-944.632471	2928.683519	-87.901779	-6.790289	2919.791222	113.890782	239.081725	2924.322367	-282.229155	235.982358	2909.577131	284.954518	417.129010	2858.799219	-439.912349	422.360927	2851.630688	312.107533	629.926503	2817.269325	-432.191610	644.645631	2797.909021	310.697645	689.975858	2814.759254	-423.796117	717.292666	2784.187317	-90.181142	299.048066	2909.196377	-81.007667	476.876736	2903.830767	
232	8.272000	-85.724115	-63.942246	2891.387939	2.630694	-152.517617	2887.911320	-170.791745	-153.431088	2881.135464	46.730038	-579.239786	2938.730240	-209.984079	-572.065294	2949.997902	73.868029	-924.674571	2973.129749	-236.375719	-896.903455	2990.651369	77.618562	-999.552786	2930.779934	-240.048796	-944.536924	2928.429127	-87.916538	-6.374784	2919.660807	113.890357	239.747763	2924.081564	-282.156974	236.575842	2909.380913	284.219354	417.932332	2858.479977	-438.975155	423.159480	2851.391792	311.054647	629.948199	2817.188025	-430.561930	644.641399	2797.306538	309.951603	689.270139	2814.898014	-422.261089	717.034340	2783.303261	-90.241656	299.132228	2909.111023	-81.040934	476.887941	2903.775215	
233	8.302000	-85.732862	-63.525185	2891.353607	2.645274	-152.043641	2887.901306	-170.776665	-152.969897	2881.087065	46.737894	-579.230905	2938.743114	-209.946617	-571.958125	2949.959040	73.852472	-924.728811	2973.285198	-236.365765	-896.960676	2990.669489	77.635981	-999.548435	2930.772543	-239.913940	-944.447219	2928.180218	-87.930046	-5.980904	2919.535875	113.888577	240.375981	2923.852205	-282.086104	237.129077	2909.194946	283.571184	418.613285	2858.198404	-438.117743	423.844159	2851.165771	310.443342	629.642844	2817.194939	-429.371893	644.294620	2796.694517	309.919089	687.812686	2815.301895	-421.303779	716.237545	2782.418489	-90.301149	299.212664	2909.028530	-81.073053	476.898819	2903.720140	
234	8.339000	-85.740544	-63.130416	2891.318560	2.658931	-151.594475	2887.890816	-170.760378	-152.533054	2881.036043	46.746127	-579.222798	2938.755751	-209.908634	-571.853101	2949.920654	73.846646	-924.747884	2973.341942	-236.353204	-896.972656	2990.668297	77.651456	-999.544740	2930.768013	-239.751860	-944.308579	2927.872658	-87.942310	-5.607684	2919.415712	113.885984	240.969345	2923.633099	-282.016516	237.641707	2909.020662	283.025652	419.169366	2857.970238	-437.335849	424.392849	2850.952387	310.202658	629.072547	2817.261934	-428.577363	643.573463	2796.081066	310.361475	685.808778	2815.734386	-420.877308	714.981735	2781.528234	-90.359360	299.289167	2908.947945	-81.104159	476.909637	2903.665066	
235	8.372000	-85.746802	-62.759869	2891.283274	2.673111	-151.173130	2887.879610	-170.742303	-152.124494	2880.982399	46.754643	-579.215646	2938.767672	-209.872544	-571.745396	2949.879408	73.839709	-924.767852	2973.407030	-236.343056	-896.980703	2990.665674	77.666558	-999.541998	2930.765867	-239.595011	-944.147289	2927.542210	-87.953508	-5.256476	2919.301033	113.882773	241.524056	2923.427820	-281.953216	238.105193	2908.859015	282.585382	419.555873	2857.802391	-436.629564	424.834996	2850.757122	310.227424	628.217459	2817.373514	-428.222626	642.525494	2795.463085	311.149538	683.435202	2816.110611	-421.205938	712.958276	2780.644655	-90.417415	299.362242	2908.870459	-81.133261	476.919115	2903.609753	
236	8.419000	-85.750923	-62.409710	2891.247749	2.688353	-150.776312	2887.868166	-170.722187	-151.738703	2880.925894	46.762820	-579.209447	2938.779593	-209.839836	-571.646154	2949.839830	73.834501	-924.781799	2973.459482	-236.333996	-896.989286	2990.663528	77.702194	-999.522150	2930.689812	-239.445493	-944.001794	2927.222967	-87.962449	-4.924793	2919.191360	113.880754	242.043704	2923.234224	-281.892419	238.534987	2908.706665	282.247603	419.811338	2857.698679	-436.001420	425.159872	2850.575209	310.675442	627.066374	2817.578077	-428.420722	641.075969	2794.807434	312.478095	680.540204	2816.544533	-422.075212	710.342884	2779.809952	-90.472266	299.430639	2908.796549	-81.160836	476.928473	2903.557777	
237	8.438000	-85.753687	-62.079739	2891.211510	2.703792	-150.402844	2887.856483	-170.700908	-151.375636	2880.866766	46.769764	-579.198360	2938.792467	-209.805399	-571.549773	2949.798584	73.823549	-924.731672	2973.486662	-236.325368	-896.998405	2990.658045	77.666759	-998.363137	2929.731846	-239.295736	-943.858802	2926.887751	-87.970175	-4.611655	2919.086695	113.880016	242.523760	2923.054218	-281.834692	238.928959	2908.564091	282.027245	419.907689	2857.649088	-435.456306	425.319463	2850.415945	311.793357	625.460982	2818.024874	-429.073304	639.213264	2794.159174	314.540416	677.166045	2817.296743	-423.521101	707.269609	2779.005289	-90.525925	299.496561	2908.724546	-81.190854	476.934046	2903.482199	
238	8.471000	-85.755676	-61.768964	2891.175032	2.718657	-150.051177	2887.843370	-170.679301	-151.034057	2880.805969	46.776544	-579.186738	2938.805580	-209.772781	-571.462572	2949.757338	73.812313	-924.672961	2973.507643	-236.317530	-897.015274	2990.651131	77.688344	-998.157382	2929.493904	-239.153922	-943.746746	2926.568508	-87.977126	-4.316460	2918.987036	113.879651	242.967293	2922.886372	-281.779975	239.288971	2908.430815	281.961054	419.774562	2857.679844	-434.987128	425.370574	2850.270033	313.560754	623.344064	2818.768024	-430.256635	636.984706	2793.411732	316.916674	673.535049	2818.145990	-425.599456	703.756988	2778.126955	-90.578161	299.559623	2908.655405	-81.219904	476.937532	2903.405428	
239	8.505000	-85.757032	-61.474994	2891.137838	2.733217	-149.720415	2887.829542	-170.657501	-150.710717	2880.742073	46.782892	-579.174995	2938.818932	-209.740356	-571.375847	2949.714899	73.801190	-924.631357	2973.529816	-236.309573	-897.024035	2990.647316	77.708468	-997.975886	2929.291725	-239.007637	-943.614900	2926.254272	-87.983385	-4.037556	2918.891191	113.879964	243.374974	2922.731638	-281.729907	239.621356	2908.308744	282.091916	419.258326	2857.897520	-434.628367	425.315529	2850.137711	315.946549	620.538652	2819.638968	-431.825787	634.565055	2792.678118	319.890916	669.203043	2819.092035	-428.175926	699.905097	2777.259111	-90.629824	299.619108	2908.587456	-81.248522	476.940513	2903.327465	
240	8.538000	-85.757762	-61.196312	2891.100883	2.747227	-149.407983	2887.814999	-170.635879	-150.404274	2880.676985	46.789102	-579.162955	2938.832283	-209.709555	-571.293592	2949.674129	73.791459	-924.592018	2973.546982	-236.301839	-897.052646	2990.643263	77.703021	-997.830510	2929.224491	-238.874808	-943.530440	2925.966024	-87.988980	-3.773437	2918.800116	113.882624	243.752539	2922.591925	-281.683922	239.926279	2908.198357	282.411486	418.484598	2858.251333	-434.391379	425.090313	2850.032330	318.738371	617.401838	2820.710897	-433.797956	631.839991	2791.941881	323.453009	665.887654	2820.034742	-431.313932	695.611656	2776.388645	-90.678662	299.675912	2908.522606	-81.278101	476.943105	2903.244019	
241	8.570000	-85.757263	-60.934670	2891.063452	2.761520	-149.114266	2887.800217	-170.613319	-150.118783	2880.610466	46.795353	-579.151571	2938.844442	-209.679052	-571.214378	2949.633121	73.782027	-924.550593	2973.561049	-236.288473	-897.057891	2990.624666	77.709176	-997.695744	2929.104567	-238.706201	-943.372488	2925.593138	-87.993465	-3.525362	2918.713570	113.885656	244.102016	2922.464609	-281.642169	240.201280	2908.097982	282.924086	417.324096	2858.737230	-434.260696	424.717456	2849.956512	322.028279	613.700211	2821.963549	-436.367303	628.726006	2791.146994	327.477932	661.036611	2821.390152	-435.122669	690.807462	2775.568485	-90.726204	299.730390	2908.459425	-81.307918	476.944000	2903.158665	
242	8.605000	-85.755989	-60.688321	2891.026020	2.775771	-148.838758	2887.784958	-170.590639	-149.851263	2880.542994	46.801504	-579.140246	2938.856363	-209.653139	-571.147442	2949.597836	73.771723	-924.510419	2973.573446	-236.275911	-897.068799	2990.612268	77.714920	-997.573018	2928.995371	-238.542721	-943.245292	2925.253630	-87.997325	-3.292047	2918.631077	113.888763	244.423017	2922.350407	-281.604230	240.452766	2908.005953	283.638090	415.726483	2859.398603	-434.298962	424.144357	2849.905014	325.681359	609.499991	2823.580742	-439.452708	625.277281	2790.321112	332.025409	655.922592	2823.059320	-439.371556	685.696661	2774.824619	-90.772256	299.782276	2908.398628	-81.336729	476.943940	2903.074026	
243	8.639000	-85.753344	-60.458254	2890.988350	2.790245	-148.580194	2887.769461	-170.567170	-149.602652	2880.474567	46.807609	-579.128921	2938.867569	-209.628865	-571.086526	2949.564934	73.764421	-924.477577	2973.612309	-236.264065	-897.084355	2990.607023	77.720948	-997.461021	2928.898335	-238.394439	-943.146825	2924.968481	-88.000014	-3.074077	2918.552160	113.890454	244.716182	2922.249317	-281.569958	240.679756	2907.922268	284.569204	413.769633	2860.291243	-434.514791	423.286736	2849.892378	329.678833	604.945600	2825.459242	-442.861408	621.504605	2789.543390	336.971790	650.654078	2825.213909	-443.975091	680.372238	2774.103165	-90.816632	299.831659	2908.338547	-81.364870	476.943702	2902.988434	
244	8.672000	-85.749432	-60.245514	2890.950680	2.805518	-148.340717	2887.753487	-170.542568	-149.372771	2880.405426	46.813447	-579.117954	2938.878059	-209.606409	-571.030021	2949.530840	73.758036	-924.452841	2973.638058	-236.252561	-897.108912	2990.598440	77.753276	-997.343242	2928.706884	-238.252670	-943.067670	2924.682617	-88.001743	-2.872199	2918.477297	113.892213	244.982556	2922.158480	-281.538486	240.883633	2907.846212	285.662413	411.429703	2861.367941	-434.901893	422.096729	2849.928141	333.727181	600.158095	2827.448845	-446.668595	617.280781	2788.732767	341.941595	645.410776	2827.420473	-448.986173	674.523473	2773.358822	-90.860128	299.878716	2908.279896	-81.392281	476.942539	2902.902126	
